<svg width="500" height="500" viewBox="0 0 500 500" fill="none" xmlns="http://www.w3.org/2000/svg">
<path d="M312.486 290.13C309.729 289.656 306.899 290.359 304.683 292.068L299.959 295.712L282.162 311.44C281.143 312.341 279.951 313.024 278.659 313.448L274.666 314.759C271.36 315.844 267.729 315.133 265.076 312.882L232.189 284.969L204.86 254.796C204.54 254.442 204.245 254.066 203.979 253.67L185.732 226.59C184.706 225.067 184.235 223.237 184.398 221.408C184.63 218.794 186.13 216.461 188.411 215.163L205.219 205.603C205.885 205.225 206.504 204.771 207.066 204.251L217.088 194.98C220.048 192.242 221.074 187.995 219.691 184.209L218.136 179.952L208.731 162.043L201.302 147.57L197.69 141.123C197.235 140.311 196.668 139.566 196.007 138.91L192.668 135.599C190.69 133.638 187.983 132.59 185.199 132.709L177.596 133.035C177.022 133.059 176.451 133.133 175.889 133.256L165.171 135.598C164.495 135.746 163.837 135.963 163.206 136.247L159.292 138.006C158.501 138.362 157.759 138.819 157.085 139.366L153.567 142.225C153.166 142.551 152.791 142.907 152.445 143.291L148.864 147.263C148.519 147.646 148.204 148.055 147.922 148.487L144.637 153.512L141.305 159.295L138.569 164.51L136.152 170.537L134.783 175.366C134.601 176.006 134.484 176.663 134.433 177.326L133.952 183.576L134.053 190.651C134.063 191.332 134.142 192.009 134.289 192.674L135.84 199.664L137.977 208.295L142.182 225.488C142.32 226.051 142.506 226.602 142.739 227.133L147.911 238.911L153.918 251.78L161.288 263.504L169.16 275.362L188.532 299.312L211.268 321.852L231.684 337.598C232.065 337.892 232.467 338.158 232.887 338.394L250.754 348.449L273.171 358.994L291.34 365.088C291.95 365.293 292.578 365.438 293.215 365.522L302.314 366.719L315.583 367.706C316.383 367.765 317.187 367.728 317.977 367.595L325.136 366.395C325.673 366.306 326.201 366.172 326.716 365.996L337.64 362.264C338.109 362.104 338.566 361.909 339.007 361.68L348.244 356.895C348.916 356.547 349.546 356.124 350.122 355.634L355.633 350.948C356.381 350.312 357.031 349.569 357.563 348.743L360.407 344.327C360.838 343.657 361.187 342.939 361.448 342.187L364.308 333.934C364.628 333.01 364.811 332.044 364.851 331.067L364.945 328.766C365.092 325.176 363.301 321.783 360.254 319.879L345.249 310.499L327.739 298.187L317.342 291.714C316.245 291.031 315.025 290.567 313.752 290.348L312.486 290.13Z" fill="#F04D1E"/>
</svg>
