<svg version="1.1" id="Layer_1" xmlns="http://www.w3.org/2000/svg" xmlns:xlink="http://www.w3.org/1999/xlink" x="0px" y="0px"
	 width="100%" viewBox="0 0 500 500" enable-background="new 0 0 500 500" xml:space="preserve">
<path fill="#C7C7C7" opacity="1.000000" stroke="none" 
	d="
M1.000002,437.000000 
	C1.000000,313.310699 1.000000,189.621384 1.306268,65.798798 
	C2.073516,64.856110 2.750325,64.099480 2.963068,63.229389 
	C6.097573,50.409721 12.085735,38.975574 20.584181,29.023815 
	C31.997606,15.658582 46.379200,6.860537 63.626900,2.915960 
	C64.200653,2.784742 64.547424,1.661060 65.000000,1.000000 
	C188.689316,1.000000 312.378632,1.000000 436.201202,1.306255 
	C437.143829,2.073651 437.900421,2.750840 438.770508,2.963500 
	C451.590973,6.096905 463.024719,12.086664 472.976624,20.584949 
	C486.341705,31.997881 495.139496,46.379482 499.084167,63.626804 
	C499.215424,64.200569 500.338989,64.547394 501.000000,65.000000 
	C501.000000,188.689316 501.000000,312.378632 500.693726,436.201172 
	C499.926392,437.143829 499.249359,437.900452 499.036743,438.770538 
	C495.903870,451.591187 489.913574,463.024994 481.415344,472.976379 
	C470.002258,486.340912 455.621613,495.141235 438.372955,499.084015 
	C437.799255,499.215149 437.452515,500.338928 437.000000,501.000000 
	C313.310699,501.000000 189.621384,501.000000 65.798798,500.693726 
	C64.856148,499.926422 64.099579,499.249390 63.229492,499.036743 
	C50.409481,495.902832 38.975197,489.914612 29.023764,481.415680 
	C15.659310,470.001892 6.858751,455.621765 2.915980,438.373016 
	C2.784843,437.799316 1.661075,437.452545 1.000002,437.000000 
M201.850479,147.679291 
	C200.864868,145.941940 200.190445,143.894073 198.830017,142.530731 
	C195.834442,139.528748 192.759705,134.915237 189.242844,134.435181 
	C177.878845,132.883972 166.472214,134.334366 156.903336,141.458466 
	C147.363403,148.561020 141.758850,158.893661 138.160904,169.799240 
	C135.779160,177.018372 134.246689,185.400406 135.445160,192.754837 
	C139.257080,216.146820 146.087906,238.664398 158.787643,259.144135 
	C173.665634,283.136566 191.828613,304.349213 212.782120,323.026733 
	C234.295471,342.203247 259.498138,355.375305 286.890594,364.160217 
	C304.277069,369.736176 321.703949,370.739563 339.016632,363.141418 
	C352.002228,357.442322 362.128357,349.492493 365.331573,334.759888 
	C366.698395,328.473511 365.920410,324.049042 361.300812,320.961823 
	C347.326172,311.622620 333.266724,302.408691 319.163239,293.264862 
	C314.181030,290.034698 309.135773,289.994629 304.426239,294.054871 
	C297.616028,299.926147 290.835815,305.832794 283.982819,311.653748 
	C278.271667,316.504822 271.022522,317.808441 266.599762,314.086426 
	C254.123535,303.586884 241.372711,293.321350 229.745743,281.927216 
	C213.663803,266.167297 199.644852,248.577393 187.837723,229.294647 
	C183.987823,223.007202 184.832825,219.098343 190.995941,215.181976 
	C198.818085,210.211441 206.744385,205.299484 213.999847,199.569672 
	C222.716232,192.686142 223.096115,188.498383 217.846375,178.465347 
	C212.598969,168.436813 207.381943,158.392395 201.850479,147.679291 
z"/>
<path fill="#000000" opacity="1.000000" stroke="none" 
	d="
M64.531342,1.000000 
	C64.547424,1.661060 64.200653,2.784742 63.626900,2.915960 
	C46.379200,6.860537 31.997606,15.658582 20.584181,29.023815 
	C12.085735,38.975574 6.097573,50.409721 2.963068,63.229389 
	C2.750325,64.099480 2.073516,64.856110 1.306268,65.332748 
	C1.000000,43.739838 1.000000,22.479677 1.000000,1.000000 
	C22.020386,1.000000 43.041534,1.000000 64.531342,1.000000 
z"/>
<path fill="#000000" opacity="1.000000" stroke="none" 
	d="
M501.000000,64.531342 
	C500.338989,64.547394 499.215424,64.200569 499.084167,63.626804 
	C495.139496,46.379482 486.341705,31.997881 472.976624,20.584949 
	C463.024719,12.086664 451.590973,6.096905 438.770508,2.963500 
	C437.900421,2.750840 437.143829,2.073651 436.667236,1.306255 
	C458.260162,1.000000 479.520325,1.000000 501.000000,1.000000 
	C501.000000,22.020386 501.000000,43.041534 501.000000,64.531342 
z"/>
<path fill="#000000" opacity="1.000000" stroke="none" 
	d="
M1.000002,437.468658 
	C1.661075,437.452545 2.784843,437.799316 2.915980,438.373016 
	C6.858751,455.621765 15.659310,470.001892 29.023764,481.415680 
	C38.975197,489.914612 50.409481,495.902832 63.229492,499.036743 
	C64.099579,499.249390 64.856148,499.926422 65.332756,500.693726 
	C43.739838,501.000000 22.479673,501.000000 1.000000,501.000000 
	C1.000000,479.979614 1.000000,458.958466 1.000002,437.468658 
z"/>
<path fill="#000000" opacity="1.000000" stroke="none" 
	d="
M437.468658,501.000000 
	C437.452515,500.338928 437.799255,499.215149 438.372955,499.084015 
	C455.621613,495.141235 470.002258,486.340912 481.415344,472.976379 
	C489.913574,463.024994 495.903870,451.591187 499.036743,438.770538 
	C499.249359,437.900452 499.926392,437.143829 500.693726,436.667236 
	C501.000000,458.260162 501.000000,479.520325 501.000000,501.000000 
	C479.979614,501.000000 458.958466,501.000000 437.468658,501.000000 
z"/>
<path fill="#F04E1F" opacity="1.000000" stroke="none" 
	d="
M202.001038,148.017120 
	C207.381943,158.392395 212.598969,168.436813 217.846375,178.465347 
	C223.096115,188.498383 222.716232,192.686142 213.999847,199.569672 
	C206.744385,205.299484 198.818085,210.211441 190.995941,215.181976 
	C184.832825,219.098343 183.987823,223.007202 187.837723,229.294647 
	C199.644852,248.577393 213.663803,266.167297 229.745743,281.927216 
	C241.372711,293.321350 254.123535,303.586884 266.599762,314.086426 
	C271.022522,317.808441 278.271667,316.504822 283.982819,311.653748 
	C290.835815,305.832794 297.616028,299.926147 304.426239,294.054871 
	C309.135773,289.994629 314.181030,290.034698 319.163239,293.264862 
	C333.266724,302.408691 347.326172,311.622620 361.300812,320.961823 
	C365.920410,324.049042 366.698395,328.473511 365.331573,334.759888 
	C362.128357,349.492493 352.002228,357.442322 339.016632,363.141418 
	C321.703949,370.739563 304.277069,369.736176 286.890594,364.160217 
	C259.498138,355.375305 234.295471,342.203247 212.782120,323.026733 
	C191.828613,304.349213 173.665634,283.136566 158.787643,259.144135 
	C146.087906,238.664398 139.257080,216.146820 135.445160,192.754837 
	C134.246689,185.400406 135.779160,177.018372 138.160904,169.799240 
	C141.758850,158.893661 147.363403,148.561020 156.903336,141.458466 
	C166.472214,134.334366 177.878845,132.883972 189.242844,134.435181 
	C192.759705,134.915237 195.834442,139.528748 198.830017,142.530731 
	C200.190445,143.894073 200.864868,145.941940 202.001038,148.017120 
z"/>
</svg>