<svg width="220" height="30" viewBox="0 0 220 30" fill="none" xmlns="http://www.w3.org/2000/svg">
<path d="M25.4624 4.48774L26.2909 0H52.3275L51.4989 4.48774H41.4125L36.8235 29.5527H30.9597L35.5487 4.48774H25.4624Z" fill="#131E3A"/>
<path d="M58.8964 29.9856C56.4425 29.9856 54.4135 29.5238 52.8095 28.6003C51.2054 27.6671 50.0794 26.3492 49.4314 24.6465C48.7941 22.9341 48.6878 20.9187 49.1127 18.6003C49.527 16.3203 50.3715 14.3194 51.6463 12.5974C52.921 10.8658 54.5144 9.519 56.4266 8.557C58.3493 7.58538 60.4739 7.09957 62.8002 7.09957C64.3087 7.09957 65.695 7.32083 66.9591 7.76335C68.2232 8.19625 69.2908 8.86965 70.1619 9.78355C71.0329 10.6975 71.6331 11.8615 71.9624 13.2756C72.2917 14.6801 72.2758 16.354 71.9146 18.2973L71.6438 19.899H51.5666L52.188 16.3781H66.7201C66.9113 15.3776 66.8475 14.4877 66.5289 13.7085C66.2102 12.9197 65.679 12.2992 64.9354 11.847C64.1918 11.3949 63.2623 11.1688 62.1469 11.1688C61.0103 11.1688 59.948 11.4334 58.9601 11.9625C57.9828 12.482 57.1595 13.1554 56.4903 13.9827C55.8211 14.81 55.3961 15.6806 55.2156 16.5945L54.5623 19.9711C54.3285 21.3564 54.3817 22.4868 54.7216 23.3622C55.0615 24.2376 55.6564 24.8822 56.5062 25.2958C57.3561 25.7095 58.429 25.9163 59.7249 25.9163C60.5748 25.9163 61.3609 25.8105 62.0832 25.5988C62.8056 25.3872 63.4482 25.0697 64.0113 24.6465C64.5849 24.2136 65.0629 23.6845 65.4453 23.0592L70.7196 23.6075C70.1353 24.8966 69.2802 26.0221 68.1542 26.9841C67.0281 27.9365 65.679 28.6772 64.1069 29.2063C62.5453 29.7258 60.8085 29.9856 58.8964 29.9856Z" fill="#131E3A"/>
<path d="M85.9527 0L80.5351 29.5527H74.7669L80.1845 0H85.9527Z" fill="#131E3A"/>
<path d="M97.2381 29.9856C94.7842 29.9856 92.7553 29.5238 91.1512 28.6003C89.5472 27.6671 88.4212 26.3492 87.7732 24.6465C87.1358 22.9341 87.0296 20.9187 87.4545 18.6003C87.8688 16.3203 88.7133 14.3194 89.988 12.5974C91.2628 10.8658 92.8562 9.519 94.7683 8.557C96.691 7.58538 98.8156 7.09957 101.142 7.09957C102.65 7.09957 104.037 7.32083 105.301 7.76335C106.565 8.19625 107.633 8.86965 108.504 9.78355C109.375 10.6975 109.975 11.8615 110.304 13.2756C110.633 14.6801 110.618 16.354 110.256 18.2973L109.986 19.899H89.9084L90.5298 16.3781H105.062C105.253 15.3776 105.189 14.4877 104.871 13.7085C104.552 12.9197 104.021 12.2992 103.277 11.847C102.534 11.3949 101.604 11.1688 100.489 11.1688C99.3521 11.1688 98.2898 11.4334 97.3018 11.9625C96.3246 12.482 95.5013 13.1554 94.832 13.9827C94.1628 14.81 93.7379 15.6806 93.5573 16.5945L92.904 19.9711C92.6703 21.3564 92.7234 22.4868 93.0633 23.3622C93.4033 24.2376 93.9982 24.8822 94.848 25.2958C95.6978 25.7095 96.7707 25.9163 98.0667 25.9163C98.9165 25.9163 99.7026 25.8105 100.425 25.5988C101.147 25.3872 101.79 25.0697 102.353 24.6465C102.927 24.2136 103.405 23.6845 103.787 23.0592L109.061 23.6075C108.477 24.8966 107.622 26.0221 106.496 26.9841C105.37 27.9365 104.021 28.6772 102.449 29.2063C100.887 29.7258 99.1502 29.9856 97.2381 29.9856Z" fill="#131E3A"/>
<path d="M113.125 29.5527L117.204 7.38817H122.733L122.032 11.1544H122.335C123.078 9.88456 124.103 8.8937 125.41 8.18182C126.716 7.46032 128.188 7.09957 129.824 7.09957C131.47 7.09957 132.798 7.46513 133.807 8.19625C134.827 8.91775 135.454 9.9038 135.687 11.1544H135.942C136.707 9.91342 137.801 8.92737 139.225 8.19625C140.659 7.46513 142.268 7.09957 144.053 7.09957C146.284 7.09957 147.994 7.74411 149.184 9.03319C150.373 10.3223 150.74 12.203 150.283 14.6753L147.542 29.5527H141.774L144.388 15.4834C144.621 14.1077 144.388 13.1025 143.686 12.4675C142.996 11.823 142.066 11.5007 140.898 11.5007C139.506 11.5007 138.348 11.8903 137.424 12.6696C136.511 13.4488 135.948 14.4685 135.735 15.7287L133.17 29.5527H127.513L130.158 15.267C130.349 14.1222 130.126 13.2083 129.489 12.5253C128.862 11.8422 127.938 11.5007 126.716 11.5007C125.888 11.5007 125.096 11.6931 124.342 12.0779C123.588 12.4627 122.945 13.0014 122.414 13.6941C121.894 14.3771 121.554 15.1708 121.394 16.075L118.909 29.5527H113.125Z" fill="#131E3A"/>
<path d="M160.358 30C158.807 30 157.458 29.7499 156.31 29.2496C155.163 28.7398 154.319 27.9894 153.777 26.9986C153.246 26.0077 153.113 24.786 153.378 23.3333C153.612 22.0827 154.058 21.0486 154.717 20.2309C155.386 19.4132 156.204 18.759 157.171 18.2684C158.148 17.7682 159.21 17.393 160.358 17.1429C161.515 16.8927 162.695 16.71 163.895 16.5945C165.361 16.4598 166.545 16.3348 167.448 16.2193C168.362 16.1039 169.047 15.9307 169.504 15.6999C169.961 15.4594 170.237 15.0938 170.332 14.6032V14.5166C170.524 13.4295 170.332 12.5878 169.759 11.9913C169.185 11.3949 168.229 11.0967 166.891 11.0967C165.488 11.0967 164.309 11.3757 163.353 11.9336C162.397 12.4916 161.701 13.1506 161.266 13.9105L156.039 13.2179C156.698 11.8711 157.601 10.7456 158.748 9.84127C159.896 8.92737 161.218 8.24435 162.716 7.79221C164.224 7.33045 165.834 7.09957 167.544 7.09957C168.712 7.09957 169.854 7.22463 170.97 7.47475C172.096 7.72487 173.089 8.13853 173.95 8.71573C174.821 9.28331 175.458 10.0577 175.862 11.039C176.276 12.0202 176.345 13.2468 176.069 14.7186L173.344 29.5527H167.799L168.373 26.5079H168.181C167.725 27.1236 167.13 27.7008 166.397 28.2395C165.664 28.7686 164.793 29.1967 163.783 29.5238C162.774 29.8413 161.632 30 160.358 30ZM162.541 26.1616C163.698 26.1616 164.74 25.9548 165.664 25.5411C166.588 25.1178 167.347 24.5599 167.942 23.8672C168.537 23.1746 168.909 22.4194 169.058 21.6017L169.536 18.9899C169.323 19.1246 168.994 19.2496 168.548 19.3651C168.102 19.4805 167.602 19.5815 167.05 19.6681C166.508 19.7547 165.972 19.8316 165.441 19.899C164.909 19.9663 164.453 20.0241 164.07 20.0722C163.189 20.178 162.381 20.3511 161.648 20.5916C160.926 20.8321 160.326 21.1688 159.848 21.6017C159.38 22.025 159.088 22.5734 158.971 23.2468C158.801 24.1991 159.051 24.9254 159.72 25.4257C160.389 25.9163 161.33 26.1616 162.541 26.1616Z" fill="#131E3A"/>
<path d="M195.445 7.38817L194.696 11.4286H180.642L181.375 7.38817H195.445ZM185.805 2.07792H191.573L187.749 22.886C187.632 23.5883 187.653 24.127 187.812 24.5022C187.982 24.8677 188.253 25.1178 188.625 25.2525C189.007 25.3872 189.438 25.4545 189.916 25.4545C190.266 25.4545 190.595 25.4305 190.904 25.3824C191.212 25.3247 191.456 25.2814 191.637 25.2525L191.891 29.3362C191.541 29.4324 191.068 29.5382 190.473 29.6537C189.889 29.7691 189.188 29.8365 188.37 29.8557C186.904 29.8846 185.629 29.6825 184.546 29.2496C183.473 28.8071 182.687 28.1289 182.188 27.215C181.699 26.2915 181.587 25.1371 181.853 23.7518L185.805 2.07792Z" fill="#131E3A"/>
<path d="M206.698 29.9856C204.244 29.9856 202.216 29.5238 200.611 28.6003C199.007 27.6671 197.881 26.3492 197.233 24.6465C196.596 22.9341 196.49 20.9187 196.915 18.6003C197.329 16.3203 198.174 14.3194 199.448 12.5974C200.723 10.8658 202.316 9.519 204.229 8.557C206.151 7.58538 208.276 7.09957 210.602 7.09957C212.111 7.09957 213.497 7.32083 214.761 7.76335C216.025 8.19625 217.093 8.86965 217.964 9.78355C218.835 10.6975 219.435 11.8615 219.764 13.2756C220.094 14.6801 220.078 16.354 219.717 18.2973L219.446 19.899H199.369L199.99 16.3781H214.522C214.713 15.3776 214.65 14.4877 214.331 13.7085C214.012 12.9197 213.481 12.2992 212.737 11.847C211.994 11.3949 211.064 11.1688 209.949 11.1688C208.812 11.1688 207.75 11.4334 206.762 11.9625C205.785 12.482 204.962 13.1554 204.292 13.9827C203.623 14.81 203.198 15.6806 203.018 16.5945L202.364 19.9711C202.131 21.3564 202.184 22.4868 202.524 23.3622C202.864 24.2376 203.458 24.8822 204.308 25.2958C205.158 25.7095 206.231 25.9163 207.527 25.9163C208.377 25.9163 209.163 25.8105 209.885 25.5988C210.608 25.3872 211.25 25.0697 211.813 24.6465C212.387 24.2136 212.865 23.6845 213.247 23.0592L218.522 23.6075C217.937 24.8966 217.082 26.0221 215.956 26.9841C214.83 27.9365 213.481 28.6772 211.909 29.2063C210.347 29.7258 208.61 29.9856 206.698 29.9856Z" fill="#131E3A"/>
<path d="M19.4035 18.6441C19.0463 18.5863 18.6792 18.6746 18.4009 18.8854L17.9443 19.2313L16.0354 20.8845C15.8998 21.0019 15.7386 21.0924 15.5622 21.1501L15.3683 21.2135C14.8974 21.3675 14.3711 21.2722 14.0019 20.966L10.5911 18.1374L7.65583 14.9592C7.61496 14.9149 7.57762 14.8681 7.54407 14.8191L5.59419 11.9686C5.48129 11.8036 5.43055 11.6098 5.44957 11.4165C5.47726 11.1351 5.64958 10.882 5.91471 10.7333L7.70057 9.73141C7.78877 9.68193 7.87036 9.62338 7.94371 9.55693L8.96881 8.62823C9.3288 8.3021 9.45477 7.81992 9.29432 7.38228L9.14746 6.98169L8.13988 5.0842L7.34435 3.55074L6.96894 2.88875C6.91225 2.7888 6.84058 2.69642 6.75596 2.61424L6.51005 2.37546C6.23832 2.11159 5.85148 1.97028 5.45363 1.98957L4.81165 2.02069C4.72872 2.02471 4.64638 2.03568 4.56568 2.05344L3.46183 2.29642C3.36653 2.31739 3.27406 2.34774 3.18604 2.38691L2.81968 2.54996C2.71278 2.59753 2.61332 2.65775 2.52392 2.72902L2.17487 3.0073C2.12337 3.04836 2.07541 3.09292 2.03141 3.1406L1.65621 3.5472C1.61328 3.59373 1.57423 3.64309 1.53941 3.69488L1.18437 4.22291L0.817883 4.84026L0.516594 5.39665L0.249239 6.03916L0.0986232 6.54718C0.0771347 6.61966 0.0630828 6.69379 0.0566465 6.76861L0 7.4271L0.00532413 8.17211C0.00587558 8.24927 0.0145163 8.32621 0.0311298 8.4019L0.192352 9.13636L0.417685 10.0524L0.858886 11.8691C0.874761 11.9345 0.896554 11.9986 0.924043 12.0607L1.47263 13.3006L2.11501 14.6646L2.90631 15.9059L3.75214 17.161L5.83757 19.6936L8.28944 22.0739L10.4786 23.7214C10.5305 23.7604 10.5856 23.7959 10.6434 23.8275L12.5577 24.8736L14.9844 25.9788L16.9203 26.6032C17.0083 26.6315 17.0992 26.6515 17.1917 26.6629L18.144 26.7794L19.5404 26.8719C19.6565 26.8796 19.7732 26.8736 19.8876 26.8541L20.5962 26.7333C20.6726 26.7203 20.7477 26.7013 20.8205 26.6765L21.9637 26.2877C22.0289 26.2655 22.0921 26.2388 22.1527 26.2078L23.116 25.7148C23.2058 25.6688 23.2895 25.6136 23.3655 25.5503L23.9288 25.0806C24.0235 25.0017 24.1052 24.9109 24.1714 24.8109L24.4652 24.3674C24.5171 24.289 24.5592 24.2056 24.5905 24.1187L24.9006 23.2588C24.9384 23.1539 24.9604 23.0448 24.9658 22.9346L24.9741 22.7661C24.9949 22.3411 24.7696 21.937 24.3796 21.6999L22.8522 20.7711L20.9599 19.4746L19.8692 18.8141C19.7286 18.729 19.57 18.6711 19.4035 18.6441Z" fill="#F04D1E"/>
</svg>
